# xmcd CD database file
#
# Track frame offsets:
#	150
#	17206
#	37754
#	55693
#	75204
#	95377
#	114339
#	136698
#	161256
#	179682
#
# Disc length: 2695 seconds
#
# Revision: 0
# Processed by: cddbd v1.4PL0 Copyright (c) Steve Scherf et al.
# Submitted via: CDex 1.50
#
DISCID=660a850a
DTITLE=Espirito - Peace Of Mind
DYEAR=2000
DGENRE=Jazz
TTITLE0=Wonderland
TTITLE1=One Time
TTITLE2=You're The One
TTITLE3=Espirito
TTITLE4=We Got the Love (Tonight)
TTITLE5=Rainbow
TTITLE6=So Cool
TTITLE7=Gypsy
TTITLE8=Montecito Nights
TTITLE9=One Way Street
EXTD=YEAR: 2000
EXTT0=
EXTT1=
EXTT2=
EXTT3=
EXTT4=
EXTT5=
EXTT6=
EXTT7=
EXTT8=
EXTT9=
PLAYORDER=
